# xmcd CD database file
#
# Track frame offsets:
#	150
#	31032
#	56614
#	79130
#	105270
#	130007
#	150645
#	174797
#	196357
#	222067
#	237122
#	269740
#	291042
#	317582
#
# Disc length: 4475 seconds
#
# Revision: 3
# Processed by: cddbd v1.4PL0 Copyright (c) Steve Scherf et al.
# Submitted via: CDex 1.40Release
#
DISCID=b111790e
DTITLE=George Michael - Ladies and Gentlemen [CD1]
DYEAR=1998
DGENRE=Pop
TTITLE0=Jesus to a Child
TTITLE1=Father Figure
TTITLE2=Careless Whisper
TTITLE3=Don't Let the Sun Down on Me
TTITLE4=You Have Been Loved
TTITLE5=Kissing a Fool
TTITLE6=I Can't Make You Love Me
TTITLE7=Heal the Pain
TTITLE8=A Moment With You
TTITLE9=Desafinado
TTITLE10=Cowboys And Angels
TTITLE11=Praying for Time
TTITLE12=One More Try
TTITLE13=A Different Corner
EXTD=YEAR: 1998 ID3G: 13
EXTT0=
EXTT1=
EXTT2=
EXTT3=
EXTT4=
EXTT5=
EXTT6=
EXTT7=
EXTT8=
EXTT9=
EXTT10=
EXTT11=
EXTT12=
EXTT13=
PLAYORDER=
